<?xml version="1.0" encoding="utf-8"?><svg version="1.1" id="Layer_1" xmlns="http://www.w3.org/2000/svg" xmlns:xlink="http://www.w3.org/1999/xlink" x="0px" y="0px" width="122.88px" height="61.369px" viewBox="0 0 122.88 61.369" enable-background="new 0 0 122.88 61.369" xml:space="preserve"><g><path fill-rule="evenodd" clip-rule="evenodd" d="M4.648,0h105.217c1.705,0,3.098,1.394,3.098,3.1v11.484 c0.1-0.021,0.204-0.03,0.311-0.03h8.058c0.853,0,1.549,0.694,1.549,1.547v27.897c0,0.85-0.696,1.549-1.549,1.549h-8.058 c-0.106,0-0.211-0.012-0.311-0.031V58.27c0,1.705-1.393,3.1-3.098,3.1H3.098C1.395,61.369,0,59.975,0,58.27V4.648 C0,2.09,2.091,0,4.648,0L4.648,0z M16.912,14.833h79.141v31.703H16.912V14.833L16.912,14.833z M10.617,8.472h91.729v44.425H10.617 V8.472L10.617,8.472z"/></g></svg>