<?xml version="1.0" encoding="utf-8"?><svg version="1.1" id="Layer_1" xmlns="http://www.w3.org/2000/svg" xmlns:xlink="http://www.w3.org/1999/xlink" x="0px" y="0px" viewBox="0 0 122.4 122.88" style="enable-background:new 0 0 122.4 122.88" xml:space="preserve"><style type="text/css"><![CDATA[
	.st0{fill:#7FBA00;}
	.st1{fill:#F25022;}
	.st2{fill:#FFB900;}
	.st3{fill-rule:evenodd;clip-rule:evenodd;fill:#F2F2F2;}
	.st4{fill:#CBCBCB;}
	.st5{fill:#00A4EF;}
	.st6{fill-rule:evenodd;clip-rule:evenodd;fill:#CCCCCC;}
]]></style><g><path class="st3" d="M0.2,41.43h122c0.11,0,0.2,0.09,0.2,0.2v78.28c0,1.63-1.33,2.97-2.97,2.97H2.97c-1.63,0-2.97-1.33-2.97-2.97 V41.63C0,41.52,0.09,41.43,0.2,41.43L0.2,41.43z"/><polygon class="st6" points="0,30.75 122.4,30.75 122.4,41.43 0,41.43 0,30.75"/><path class="st4" d="M37.65,0.48l0,40.71H26.2V10.12c0-0.15,0.07-0.28,0.18-0.37l10.47-9.62c0.2-0.18,0.5-0.17,0.68,0.03 C37.61,0.25,37.65,0.36,37.65,0.48L37.65,0.48z"/><polygon class="st3" points="37.17,0.48 37.17,41.43 26.68,41.43 26.68,10.12 37.17,0.48"/><path class="st4" d="M84.77,41.19V0.48c0-0.12,0.04-0.23,0.13-0.32c0.18-0.19,0.48-0.21,0.68-0.03l10.47,9.62 c0.11,0.09,0.18,0.22,0.18,0.37v31.07H84.77L84.77,41.19z"/><polygon class="st3" points="85.25,0.48 85.25,41.43 95.74,41.43 95.74,10.12 85.25,0.48"/><polygon class="st6" points="37.17,0 85.25,0 85.25,10.74 37.17,10.74 37.17,0"/><polygon class="st1" points="39.77,59.72 60.14,59.72 60.14,80.1 39.77,80.1 39.77,59.72"/><polygon class="st0" points="62.26,59.72 82.63,59.72 82.63,80.1 62.26,80.1 62.26,59.72"/><polygon class="st5" points="39.77,82.22 60.14,82.22 60.14,102.59 39.77,102.59 39.77,82.22"/><polygon class="st2" points="62.26,82.22 82.63,82.22 82.63,102.59 62.26,102.59 62.26,82.22"/></g></svg>